<?xml version="1.0" standalone="no"?>
<!DOCTYPE svg PUBLIC "-//W3C//DTD SVG 20010904//EN"
 "http://www.w3.org/TR/2001/REC-SVG-20010904/DTD/svg10.dtd">
<svg version="1.0" xmlns="http://www.w3.org/2000/svg"
 width="274.000000pt" height="207.000000pt" viewBox="0 0 274.000000 207.000000"
 preserveAspectRatio="xMidYMid meet">

<g transform="translate(0.000000,207.000000) scale(0.100000,-0.100000)"
fill="#000000" stroke="none">
<path d="M690 1891 c-52 -32 -218 -131 -368 -221 -285 -170 -303 -185 -281
-233 6 -13 57 -52 117 -88 270 -165 634 -379 646 -379 7 0 25 9 40 21 25 20
33 50 20 83 -5 13 -345 223 -566 350 -27 15 -48 31 -48 35 0 5 137 90 304 190
167 100 307 189 310 197 13 33 5 63 -20 83 -15 12 -34 21 -43 21 -9 0 -59 -27
-111 -59z"/>
<path d="M1883 1930 c-25 -23 -30 -67 -10 -92 11 -15 125 -85 460 -282 81 -48
147 -91 147 -95 0 -5 -137 -90 -304 -190 -167 -100 -307 -188 -310 -197 -13
-33 -5 -63 20 -83 15 -12 33 -21 41 -21 8 0 181 100 384 221 278 167 371 227
375 244 15 60 13 62 -281 237 -154 92 -317 190 -361 218 -100 61 -131 69 -161
40z"/>
<path d="M1749 1763 c-13 -16 -12 -17 4 -4 16 13 21 21 13 21 -2 0 -10 -8 -17
-17z"/>
<path d="M1140 1486 c0 -7 9 -24 20 -37 l19 -24 1 25 c0 15 -8 30 -20 38 -16
10 -20 10 -20 -2z"/>
<path d="M1202 1413 c-17 -7 -5 -23 18 -23 22 0 35 -42 20 -69 -7 -15 -6 -20
6 -25 24 -9 54 -7 54 4 0 6 11 10 24 10 35 0 50 43 19 54 -11 5 -25 -2 -40
-21 l-24 -28 5 42 c6 39 4 42 -26 52 -33 12 -36 12 -56 4z"/>
<path d="M1665 1411 c-58 -18 -85 -42 -85 -72 0 -42 29 -35 44 10 14 42 41 57
34 18 -4 -23 -3 -25 13 -16 23 12 42 46 34 59 -7 11 -11 11 -40 1z"/>
<path d="M1534 1347 c-21 -13 -98 -15 -127 -2 -24 10 -31 1 -23 -30 7 -29 45
-35 67 -9 11 14 13 14 21 0 14 -25 45 -19 68 15 25 34 23 44 -6 26z"/>
<path d="M1090 1120 c0 -5 5 -10 11 -10 5 0 7 5 4 10 -3 6 -8 10 -11 10 -2 0
-4 -4 -4 -10z"/>
<path d="M243 606 c-38 -17 -73 -69 -73 -109 0 -63 49 -112 115 -117 63 -4 89
7 80 33 -5 11 -18 15 -50 14 -54 -2 -85 23 -85 67 0 17 4 36 8 42 14 22 53 35
86 29 26 -5 35 -3 40 11 4 9 3 21 -2 26 -17 17 -86 19 -119 4z"/>
<path d="M482 601 c-119 -76 -43 -255 94 -219 47 12 76 50 82 107 4 45 1 52
-29 85 -43 48 -98 57 -147 27z m96 -47 c46 -32 18 -134 -38 -134 -32 0 -60 36
-60 75 0 38 28 75 58 75 10 0 28 -7 40 -16z"/>
<path d="M720 495 l0 -115 55 0 c46 0 59 4 88 30 55 48 57 116 7 170 -25 27
-34 30 -89 30 l-61 0 0 -115z m95 63 c46 -21 46 -94 0 -124 -13 -9 -29 -13
-35 -9 -13 8 -13 145 0 145 5 0 21 -5 35 -12z"/>
<path d="M970 495 l0 -115 64 0 c60 0 76 8 76 35 0 2 -19 5 -42 7 -35 2 -44 7
-46 25 -3 19 2 22 35 25 31 2 39 7 41 26 3 20 -1 22 -38 22 -37 0 -41 2 -38
23 2 18 11 23 43 27 27 3 40 10 40 20 0 12 -15 16 -67 18 l-68 3 0 -116z"/>
<path d="M1188 163 c-10 -2 -18 -9 -18 -14 0 -6 4 -8 9 -4 6 3 14 -3 20 -12 9
-16 10 -14 11 10 0 15 -1 26 -2 26 -2 -1 -11 -3 -20 -6z"/>
<path d="M1640 120 c-9 -6 -10 -10 -3 -10 6 0 15 5 18 10 8 12 4 12 -15 0z"/>
<path d="M958 113 c7 -3 16 -2 19 1 4 3 -2 6 -13 5 -11 0 -14 -3 -6 -6z"/>
</g>
</svg>
